# xmcd
#
# Track frame offsets:
#	150
#	66391
#	90707
#	98561
#	100033
#	102911
#	138662
#	188067
#	242779
#	248141
#
# Disc length: 3319 seconds
# Revision: 0
# Processed by: cddbd v1.5.2PL0 Copyright (c) Steve Scherf et al.
# Submitted via: dBpowerAMP V12.0
#
DISCID=830cf50a
DTITLE=Hale Dwoskin - The Sedona Method Course CD 02
DYEAR=2007
DGENRE=Speech
TTITLE0=Q and A, Sharing and Assistance
TTITLE1=The Gains You Can Expect
TTITLE2=Writing Down Your Intentions
TTITLE3=Instructions
TTITLE4=Instructions
TTITLE5=The Continuum of Letting Go
TTITLE6=The Anatomy of a Problem
TTITLE7=Release on Dissolving Problems
TTITLE8=Summary of Release
TTITLE9=Conclusion
EXTD=
EXTT0=
EXTT1=
EXTT2=
EXTT3=
EXTT4=
EXTT5=
EXTT6=
EXTT7=
EXTT8=
EXTT9=
PLAYORDER=
